<svg width="64" height="64" viewBox="0 0 64 64" fill="none" xmlns="http://www.w3.org/2000/svg">
<rect width="64" height="64" rx="32" fill="#FFFDF4"/>
<mask id="mask0_121_19" style="mask-type:luminance" maskUnits="userSpaceOnUse" x="40" y="33" width="4" height="4">
<path d="M40.1309 33.1044H43.2713V36.2449H40.1309V33.1044Z" fill="white"/>
</mask>
<g mask="url(#mask0_121_19)">
<path d="M40.1328 34.7318C40.1648 34.7104 40.2025 34.7054 40.2381 34.6962C40.3085 34.677 40.381 34.6685 40.4493 34.6443C40.5574 34.6059 40.6669 34.5725 40.7707 34.5227C40.8852 34.4693 40.9947 34.4068 41.0993 34.3349C41.1455 34.3029 41.1889 34.2674 41.2301 34.229C41.3076 34.1543 41.3716 34.0697 41.4228 33.9751C41.4762 33.8748 41.5075 33.7667 41.5423 33.6601C41.5814 33.5349 41.6141 33.4083 41.6404 33.2803C41.6497 33.2383 41.6525 33.195 41.6596 33.153C41.6632 33.1359 41.6717 33.1224 41.6852 33.1118C41.6938 33.1039 41.7037 33.1096 41.7101 33.1253C41.7286 33.1658 41.7428 33.2078 41.7535 33.2504C41.7848 33.3635 41.8197 33.4759 41.8595 33.5854C41.8908 33.6679 41.927 33.7468 41.9697 33.8236C41.9918 33.867 42.1311 34.1088 42.1603 34.1458C42.2321 34.2375 42.3196 34.3093 42.4234 34.3613C42.476 34.3869 42.5308 34.4075 42.587 34.4224C42.6624 34.4437 42.7377 34.4715 42.8131 34.4942C42.9091 34.5234 43.0066 34.5454 43.1054 34.5597C43.1552 34.5689 43.205 34.581 43.2533 34.5959C43.2675 34.6002 43.2697 34.6102 43.2604 34.6215C43.2533 34.6286 43.2448 34.6336 43.2348 34.6365C43.2 34.65 43.1637 34.6606 43.1275 34.6685C43.0279 34.6955 42.9312 34.7296 42.8373 34.7723C42.7072 34.8278 42.5877 34.9003 42.4775 34.9899C42.4398 35.0212 42.3992 35.0504 42.3594 35.0802C42.3011 35.1243 42.2577 35.1826 42.2143 35.2409C42.0444 35.4578 41.8588 36.1505 41.8481 36.2074C41.8467 36.2131 41.8453 36.2188 41.8424 36.2245C41.8396 36.2323 41.8367 36.2437 41.8275 36.2437C41.8175 36.2415 41.8111 36.2358 41.8069 36.2259C41.745 36.1021 41.6774 35.9812 41.6056 35.8632C41.5402 35.7544 41.4776 35.6434 41.4072 35.5382C41.3446 35.4429 41.277 35.3512 41.2045 35.263C41.1035 35.1442 40.9833 35.0504 40.8432 34.9828C40.748 34.9366 40.6498 34.8989 40.5481 34.8704C40.4614 34.8463 40.3753 34.8164 40.2878 34.7915C40.2473 34.7801 40.2075 34.7623 40.1641 34.763C40.152 34.7638 40.1428 34.7531 40.1328 34.7453V34.7318Z" fill="#F6D636"/>
</g>
<path d="M39.9496 33.9502C39.6438 34.4793 39.6908 35.0468 40.089 35.6513C40.4887 36.2643 41.1536 36.4307 42.0831 36.1519C42.6669 35.9755 43.1078 35.716 43.4058 35.3725C43.7031 35.0276 43.8937 34.6606 43.9776 34.2716C44.0515 33.8435 43.9442 33.4808 43.6561 33.185C43.3582 32.8877 42.9912 32.7014 42.5553 32.6275C42.1094 32.5613 41.64 32.626 41.1472 32.8209C40.6558 33.0257 40.2569 33.4026 39.9496 33.9502ZM42.8056 28.6422C41.8953 28.4374 40.9943 28.4139 40.1032 28.5711C39.4262 28.6927 38.8552 28.9295 38.3908 29.2822C37.9165 29.6449 37.3731 29.7651 36.7609 29.6435C36.1365 29.524 35.6948 29.1763 35.4353 28.5995C35.175 28.0327 35.2404 27.5456 35.6316 27.1374C36.0127 26.7278 36.3555 26.417 36.6613 26.2044C36.8753 26.0451 37.0944 25.9107 37.3184 25.8004C37.9115 25.484 38.5288 25.2742 39.1702 25.1718C39.8017 25.0694 40.4375 25.0096 41.0789 24.9926C41.9337 24.9741 42.77 25.0523 43.5879 25.2287C44.2286 25.3581 44.8551 25.553 45.4681 25.8147C46.0712 26.0842 46.6558 26.6275 47.2232 27.4446C47.7808 28.2624 48.0226 29.2275 47.9486 30.3404C47.8747 31.4654 47.8327 32.7939 47.8235 34.3257C47.8135 36.0083 48.0176 37.267 48.435 38.1033C48.482 38.2327 48.5332 38.3707 48.5887 38.5186C48.6342 38.6687 48.6527 38.8173 48.6455 38.9652C48.6455 39.2255 48.5382 39.4573 48.3241 39.6621C48.1093 39.8669 47.7843 40.0106 47.3484 40.0945C46.9025 40.1777 46.4936 40.1585 46.1224 40.0376C45.7505 39.9181 45.4859 39.8164 45.3288 39.7332C45.04 39.5739 44.8224 39.3549 44.6745 39.0761C44.5721 38.8735 44.4882 38.6793 44.4242 38.493C43.9306 38.8649 43.5125 39.1245 43.1697 39.2724C42.4074 39.5967 41.5945 39.778 40.7319 39.8157C39.8479 39.8342 39.0067 39.7098 38.2087 39.4402C37.5957 39.2354 37.0339 38.9616 36.5219 38.6182C36.0113 38.2825 35.6216 37.8601 35.3528 37.3495C35.1025 36.8567 34.9773 36.2856 34.9773 35.637C34.9773 34.7083 35.2276 33.872 35.7283 33.1281C35.9878 32.7661 36.2346 32.4312 36.4679 32.124C36.6897 31.8189 37.1769 31.3922 37.93 30.8439C38.6824 30.2963 39.5976 29.9614 40.675 29.8398C41.7517 29.7189 42.8995 29.7971 44.117 30.0759C44.1525 30.0119 44.1198 29.8355 44.0174 29.5468C43.9164 29.268 43.5125 28.9665 42.8056 28.6422Z" fill="#F93D3A"/>
<mask id="mask1_121_19" style="mask-type:luminance" maskUnits="userSpaceOnUse" x="26" y="14" width="9" height="37">
<path d="M34.3698 14.0034H26.5415V50.7783H34.3698V14.0034Z" fill="white"/>
</mask>
<g mask="url(#mask1_121_19)">
<path d="M32.5837 25.3683C32.2857 27.6994 32.1784 30.2624 32.2623 33.0572C32.3455 35.8527 32.6754 38.324 33.2522 40.4702C33.2977 40.6921 33.3581 40.9246 33.4342 41.1672C33.5082 41.4082 33.5544 41.6493 33.5736 41.8897C33.5736 42.3185 33.3873 42.6257 33.0161 42.8113C32.6442 42.9976 32.2168 43.1036 31.7332 43.1299C31.2396 43.1584 30.7575 43.1264 30.2853 43.0332C29.8017 42.9408 29.4618 42.8298 29.2669 42.7004C28.895 42.4671 28.6162 42.1229 28.4306 41.6678C28.2443 41.2127 28.1006 40.7718 27.9982 40.3451C27.7948 39.5187 27.6377 38.4591 27.526 37.1677C27.4137 35.8862 27.3482 34.5577 27.3298 33.1824C27.3127 31.817 27.3411 30.5028 27.4151 29.2398C27.489 27.9867 27.6092 26.9698 27.7764 26.1904C27.9243 25.4643 28.1049 24.9018 28.3197 24.5035C28.496 24.1608 28.7136 23.9282 28.9739 23.8066C29.2811 23.6665 29.6431 23.5833 30.0606 23.5563C30.4702 23.5279 30.8414 23.5328 31.1756 23.5705C31.6493 23.626 32.0262 23.7654 32.3049 23.9887C32.5837 24.2205 32.6762 24.6799 32.5837 25.3683Z" fill="#31A768"/>
</g>
<mask id="mask2_121_19" style="mask-type:luminance" maskUnits="userSpaceOnUse" x="48" y="13" width="11" height="35">
<path d="M58.013 13H48V48H58.013V13Z" fill="white"/>
</mask>
<g mask="url(#mask2_121_19)">
<path d="M52.0296 29.4829C52.2756 29.4265 52.543 29.3893 52.8318 29.3714C52.9626 29.3628 53.0878 29.3595 53.2072 29.3608C53.7854 29.3681 54.2007 29.3814 54.4532 29.4006C54.8095 29.4398 55.0968 29.4789 55.3151 29.5174C55.3606 29.5228 55.4267 29.5453 55.5142 29.5838C55.5519 29.607 55.6059 29.6475 55.6763 29.7059L55.8499 29.8387C55.8797 29.8619 55.9352 29.9097 56.0149 29.982C56.0469 30.0245 56.0789 30.0895 56.1116 30.1758L56.2197 30.4785C56.2232 30.5495 56.2481 30.6523 56.2936 30.7864C56.3064 30.8203 56.3164 30.8767 56.3221 30.9563C56.3406 31.6061 56.3228 32.5538 56.268 33.7995C56.2453 34.3822 56.2566 34.9981 56.3022 35.6472C56.4159 37.1252 56.2552 35.9233 56.6407 37.5493C56.6407 37.8201 56.6165 38.0829 56.5696 38.3378C56.5219 38.5946 56.4686 38.7718 56.4103 38.8687C56.3093 39.032 56.076 39.1581 55.7105 39.2484C55.5469 39.2948 55.3634 39.324 55.1586 39.336C54.9574 39.3572 54.7497 39.3705 54.5357 39.3758C54.1524 39.3904 53.7371 39.3758 53.2897 39.3333C52.9519 39.3107 52.6597 39.2716 52.4136 39.2165L52.2458 39.1501C52.206 39.1342 52.1419 39.0944 52.0552 39.0307C52.0154 39.0094 51.9599 38.9663 51.8902 38.9006C51.8902 38.9099 51.8397 38.8601 51.7394 38.7519C51.701 38.7274 51.6641 38.6637 51.6285 38.5608C51.5844 38.4778 51.5503 38.3763 51.5261 38.2555C51.4841 38.075 51.2587 36.6082 51.2587 36.6082C51.1883 36.1251 51.1371 35.6552 51.1051 35.1986L51.1022 35.1322L51.0966 35.0685L51.0909 35.0021C51.0909 34.9862 51.0894 34.965 51.088 34.9384C50.9437 32.9069 51.2573 31.0884 52.0296 29.4829ZM55.2155 24.5319C55.7368 24.9354 56.0184 25.4444 56.0604 26.0583C56.1037 26.6636 55.8954 27.1985 55.4346 27.6618C54.9716 28.1237 54.3934 28.3759 53.6994 28.4184C53.0145 28.4609 52.4108 28.2817 51.8874 27.8795C51.3654 27.476 51.083 26.9716 51.0397 26.3663C50.9977 25.7524 51.2075 25.2135 51.6683 24.7495C52.1306 24.2969 52.7045 24.0487 53.3893 24.0062C54.0834 23.9637 54.6921 24.139 55.2155 24.5319Z" fill="#E8678F"/>
</g>
<path d="M8.37549 27.0024C8.46793 26.5117 8.52909 26.2244 8.55754 26.1405C8.66919 25.7216 8.91951 25.4009 9.30851 25.179C9.45785 25.0866 9.77005 24.9329 10.2444 24.7182C11.3481 24.2346 12.5321 23.8868 13.7973 23.6742C15.0866 23.4602 16.3773 23.409 17.6688 23.5206C19.0242 23.6401 20.2644 23.9416 21.3895 24.4252C22.597 24.9543 23.6147 25.674 24.4417 26.5842C24.84 27.0223 25.197 27.5158 25.5141 28.0634C25.8384 28.7027 26.066 29.283 26.1968 29.8043C26.354 30.4358 26.4002 31.0353 26.3362 31.6021C26.1862 32.9945 25.3307 34.2205 23.7704 35.2801C22.2016 36.3483 20.8789 37.0168 19.8022 37.2856C18.6224 37.5835 17.4049 37.6859 16.1497 37.5928C16.0758 37.5835 15.9776 37.5928 15.8568 37.6212C15.7273 37.6575 15.6263 37.6945 15.5524 37.7322C15.44 37.7876 15.3284 37.8566 15.2167 37.9398C14.9664 38.1261 14.7673 38.4462 14.6194 38.9013C14.4885 39.3109 14.4039 39.7853 14.3662 40.3236C14.3392 40.6671 14.3264 41.1684 14.3264 41.8284C14.3264 42.0695 14.3349 42.292 14.352 42.4969C14.3612 42.7017 14.3705 42.8738 14.3804 43.0117C14.3897 43.1788 14.3804 43.3232 14.352 43.4441C14.3249 43.5565 14.2702 43.6397 14.187 43.6944C14.1031 43.7591 14.0106 43.7961 13.9082 43.8054C13.7411 43.8246 13.6017 43.8338 13.4901 43.8338C13.0442 43.8338 12.4496 43.8068 11.7065 43.7513C10.9534 43.6944 10.3959 43.5316 10.0339 43.2621C9.93148 43.1981 9.83832 43.1049 9.75511 42.9833C9.59724 42.7884 9.44007 42.3937 9.28291 41.7999C9.1421 41.3356 9.00272 40.7268 8.86476 39.9737C8.7339 39.3899 8.62154 38.7633 8.52909 38.0934C8.41673 37.3979 8.35628 36.957 8.34704 36.7707C8.33922 36.733 8.33566 36.6768 8.33566 36.6029C8.32571 36.5744 8.32144 36.5474 8.32144 36.5204C8.31148 36.4919 8.30722 36.4635 8.30722 36.435C8.30722 36.3611 8.30224 36.3056 8.29299 36.2672C8.29299 36.2409 8.29299 36.2132 8.29299 36.1847C8.28304 36.1662 8.27877 36.1435 8.27877 36.1164C8.24037 35.7623 8.20837 35.3989 8.18205 35.027C8.14365 34.665 8.11521 34.2945 8.09672 33.9147C8.04125 33.2363 8.00924 32.4604 8 31.5879C8 30.6591 8.02702 29.8783 8.08249 29.2468C8.13938 28.3728 8.23681 27.6246 8.37549 27.0024ZM19.1878 28.4673C18.1559 28.0577 17.0785 27.9923 15.9563 28.2711C15.797 28.3265 15.6669 28.3728 15.5666 28.4105C15.2039 28.5776 14.9209 28.8471 14.7161 29.2183C14.566 29.5255 14.4956 29.9999 14.5056 30.6406C14.5148 31.2821 14.6122 31.7415 14.7986 32.0202C14.9195 32.1874 15.0411 32.3125 15.1627 32.3957C15.4962 32.6844 15.9599 32.8331 16.5537 32.8423C17.075 32.8501 17.6375 32.8125 18.2405 32.7285C18.8336 32.6453 19.34 32.4227 19.7595 32.0601C20.0099 31.8289 20.2047 31.5736 20.3455 31.2949C20.4835 31.0069 20.5532 30.7003 20.5532 30.3761C20.534 29.6592 20.1862 29.0782 19.5092 28.6323C19.416 28.5683 19.3087 28.5129 19.1878 28.4673Z" fill="#3D98D6"/>
</svg>
